<?xml version="1.0" encoding="UTF-8"?>
<svg id="Layer_1" xmlns="http://www.w3.org/2000/svg" xmlns:xlink="http://www.w3.org/1999/xlink" version="1.1" viewBox="0 0 304.2 232.4">
  <!-- Generator: Adobe Illustrator 29.2.1, SVG Export Plug-In . SVG Version: 2.1.0 Build 116)  -->
  <defs>
    <style>
      .st0 {
        fill: #231f20;
      }

      .st1, .st2 {
        fill: #fff;
      }

      .st1, .st3 {
        display: none;
      }

      .st4 {
        fill: #c3c1be;
      }

      .st5 {
        fill: #fcf6ef;
      }

      .st6 {
        fill: #bbb9b7;
      }
    </style>
  </defs>
  <g id="Layer_2" class="st3">
    <path class="st1" d="M328.9-131v454H-34.3V-131h363.2,0ZM69.2,33.4c.3-.4-.7-5.5-.8-6.5-.2-1.8.7-4-1.1-5.2-.5.4-.9.8-1,1.5s-.4,4.9-.3,5.8c0,1.5,1.7,4.3,3.3,4.5h0ZM47.8,39.5c-.3-.2-.4-1.1-.7-1.1-.9.5-6.3,3.7-5.7,4.6l6.6,2.9.2-1.2c1.5-.3,1.7.3,2.4,1.2l11,1.3c-5.7.2-11.4.8-16.9-.9s-3.7-1.5-3.9-1.6c-.8-.5-1-2.4-2.4-1.4v2.3c3.6,1.3,7.3,2.7,10.3,5.1.3-.3-.3-2.6.8-2.1s.3,1,.4,1.1c2,2.5,9.1,6.2,12.3,7.6.9.4,2.4.5,3.4.9l-.8.6c1.7,2.1,2,6.3,1.3,8.9l.8.2-.2.8-1.1-.2,2.1,17.9c.9-.2.6-.7.7-1.2.7-5.2-.8-11-.9-16.2s.6-1.3.6-2c0-1.6-1.5-6.2.5-6.2v7.4l1.3.2-.9.7,1.3,19-1.7.5-.8-1.7-.4,1.5c1.2.3.9,3.4.8,4.6s-.3,1.3-.8.6v-2.9l-.6,2.1-1.5-4,.8-.6h-2.9c-.2-2.3,3.8.9,3.4-1.3-1.8,0-3.4-.5-5.3-.4s-1.2-.3-1,.8l1.7-.4c1.5,3.1,4.2,5.6,4.9,9.1s.3,3.1-.6,3.3l.3.6c-1-.2-4,1.2-3.8,2.3.4,1.7,2.1-.6,2.6-.8s2.8-1.2,2.9-1.1v2.5c.4.3,2.1-.7,1.7.8-2-.4-4.3.5-6.3,1.1-2.9.9-6.7,2.9-9.2,3.5s-1.1,0-1.8-.3l.4,2.9c-1.1.2-2.1-.2-2.5-1.3l1.7.8c.4-.3,0-3.7.2-4.6.5-1.8,2.5-2.3,1.5-4.2l1.3-.4c-5.5-.7-3.9,3.3-3.9,6.6s.6,1.5-.5,1.4c-.5-.9-.7-2-.2-2.9l-1.3-.2c1.5-.3-.2-2.5,1.3-4-3.8-.9-7.5-.8-11.2-.2s-1.2-.9-1.6.6l-1.2-.5-.4.9h-.4c-.8-2-1.4.5-.2,1.7-1.2,0-1.3-1-1.3-1.8-.5-1.2-1,.6-1.3.7-.6.4-1.4.4-1.9,1.1l-.4-.8c-.8.4-.2,1.5-.4,1.7-.9,1.2-3.2.3-1.8-2.3s2.4-2.1,1-1.9-2.9.6-4.4.6l1.3.6c-1.8,2.1-5.1-.4-7.6.8.5,1.1,2.5-.3,3.4,0l-.8.6,1.9,3.2,1.1-.3.2-1,2.7,1.3-1.9,2.9h-.6l1.1-1.3-.6-.8-1.5,2.1-.4-.8c-.9.9-2.2,0-2.9,0-1.1.2-.7,1.9-1.9,1.6l.2-1.7-3.2,1.7.8-1.5c-1.5-.4-1,2-3.4,1.3,1.1,1.6,3.5,1.1,5.2,1s.9-.6,1.3-.6c3.3,0,7,.5,10.3.2-.9,2.4.6,3.7,0,5.9.7.7,8.9-3.8,10.1-4.6-.6,2-2,3.6-1.7,5.9.9-.2.5-1.7,1.5-2s3.3.3,4.5,0,.4-.6,2.1-1,2.9-1.2,3.8-1.1.5,1.2,1.1,1.5,1.7-.9,1.8.5l1.2-.3c.3,1.4-1.3.7-2.1,1.5s-.3,1.2-.7,1.5c-1.7,1.3-6.1,2.8-8.2,3.8s-.9.7-1.4,1.2l-.6-.8-1.1,1.7.2-2.1h-1.2l-.3,2.1c.7.2,1.9,1.2,2.5,1.2s9.7-4.8,11.6-5.6,5-2.1,7.6-2.3l-.4-.8c1.7.8,2.6-.8,4.2,0l-2.9-4.4c-1-.7.6,1.7-.6,1.1s-1.6-1.8-1.4-2.6.8-2,1.2-2c.9,3.1,3.1,5.7,5.2,8,2.1,2.3,2.7,1.4,2.1,3l2.6,1.2,1,10.1c.6,0,.8-1.9.8-2.4,0-2.9-2.1-8.8.9-9.8l.8,12.2.4-1.7c1.4.6,0,2.1,0,2.7v2.7l1.3-.8-.8,4.6.8-.8-.4,4.2.8-.8c-.7,1.8,1,6.6.4,7.7-1.1,2-.3,1.9-.4,4.3s-.7,1.4-.7,1.7,1.1,2.1,1.1,2.7l-1.7-.7c.7-2.1-.4-3.3-.6-4.7s.9-2.5-.6-2.2v2.9c-2.2-.5-3.4,1.4-5.5.4.4,1.7-1,1.1-2.1,1.9-4,2.8-3.2,7.1,1.7,7.8-.2,1.8-4-.7-4.5-1.4-.8-1,0-5.2-3.1-3.7l.8.6c-2.5,1-3.1,3.3.4,2.3l-.8,1.7,1.7-.8.8,2.5c-1.7,0-2.6,2.6-4.4,3.4-.7-.6.6-1,.5-1.7s-1.5-.9-1.1-2.1l-.4.8c-.4-.4-2.3,1.4-2.5.2s1.8-1.5,2.5-1.5l-.6-.8-4.6,2.9.2-2.5h-1.7c.7-2.4,3.7-1.3,3.4-4.6,0-.1-2.7,1.2-2.8,1.4-.6.6-.2,1.8-2,2-.9,1,1.7.7,0,2.1s-4.5.2-3.9,3.8l2.3-1.3c1,1.5-.7,1.9-.9,2.2s.5,2.8-1.4,1l.8-.8c-.6-.7-2,1-2.1,1.7,1.2,4.3.6,6.6,4.2,9.6s2.9,2.3,3.8,2.1l-.8-1c1.5-.5,1.6.6,2,.8,2.3,1,5.3,1.9,7.8,2.6s3.1,0,3.6,1.2l-1.3.2c1.7.8,4.5,1.3,6.5,1.4,12.1.8,27.1-1.4,36.3-9.8,2.8-2.6,2.8-5.3,7.3-5.7,5.4-.5,11.5,1,16.8,1.3,7.4.4,14.9,0,22.3.8,39.4-.5,78.5,2.8,117.7,4.6,3.4.2,10,.7,13,0s4.2-3.2,4-5.6c-.1-2.1-3.3-3.1-2.9-5,2.7-7.4,5.9-14.7,6.3-22.7.4-6.7-.6-13.7-1.9-19.6-2.3-11-11-20.8-19.9-27.2-17.2-12.5-44.3-12.1-62.1-.8-.8.5-1.4,2.1-2.6,2.2s-3.3-1.6-3.5-1.7c-1.4-1-2.1-2.4-3.8-3.3s-6.2-2.5-7.3-2.3-1.6,1.6-1.5,1.7c1.2,1.2,5.9,2.1,7.9,3.3,3.1,2,2.1,2.1,1.3,4.8s.5,1.3-1.5,2.8c1.6,0,3.4-3.4,4.2-.4h-1.1c-2.8,2-5.7,4.9-8.6,6.4l-.4.6.8.4c-1.3.2-2.5,1.3-3.6,2.1-5.9,4.9-14.1,10.2-20.9,14.5-2.3,1.5-10.4,6.8-12.4,7.4s-.7.1-.6-.2l11.8-8-.6-.2c-7.6,5.2-15.7,9.5-24,13.4-13.8,6.6-28.6,11.1-42.3,17.7-.3.1-.2.9-.5.9l-1.7-.9c0-2.4,1.8-.6,3.6-1s3.7-2.3,3.4-2.8c-1.4-.9-3.1-.6-4.3-.9s-1.3-1.4-2.2-1.5c-1.4-.1-3.4.4-4.6.5s-1.5-.4-1.9-.2.6,1.2-.4,1.3l-.2-.7-.4.2-.2-1.1c-.7-.2-.3.7-.4.8s-1.3-1.1-2.1-.4l.4-1.3c-1.1-.6-1.3.8-1.5.9-.7,0-1.8-.5-2.6-.5l-3-34.2c.2-.9,3.7,1.9,3.4-.2-1-.3-1.6.3-1.9-.8l-1.1.4.4-1.3-1.3-.6,3.8-2.5-1.3-.6c1.2-.2,2.2-1.3,2.1-2.5,1.3.2,2.3,1.8,3,2.2s1.2,0,1.7.3.3.8.5.8c.8,0,1-1,1.8-1.2,2.6-.7,6.6,0,8.9-2.4l-1.3-.8.7-1.1c1,.3,1.7-.3,2,.8l1.1-.4-.8,1.7c2.6-.3,10.5,3.1,12.3,2.1s.6-1,.9-1.3c1.3-1,6.4,0,8.4-.8,2.5-.7,7.6,1.1,9.6.4s.7-.7.9-1.2l-.5-.8c-2.9-.3-5.9,0-8.8,0h-5.4c-.3,0-.8-1.6-2.4-.9l2.1-1.2-2.1-1.7c1.5.3,3.8-1.1,3.6-2.7s-.9-.7-.7-1.5l9.7.8c0-.6,0-1.1-.2-1.7-.6-1.2-2.5-1.3-2.3-2.5,1.9-.6,9.9-3,10.9-4s.5-.8.4-1.5c-.6-.6-11.9,4-13.5,4.7s-.3.7-.6.8c-2.3.5-6.4-.3-9,.4l1.7,1.3-4.6-.4.4,1.3h-1.7l.4.8c-1.4,0-8.7-1.1-9.2-.7s0,.5,0,.7h-.4c.3-1-2-1.2-1.7,0h-.8l-.2-.8-.2.8h-.8l-.2-.8c-.3,1.4-1.3.6-2.4.9s-1.6,1.5-2.6,1.6l1.1-1.2-2.9.4.8.8c-1.1.3-1.6,2.4-2.4,3.7s-1.1.9-1.5,1.4,0,.7,0,.8c-.9,1-3.9-1.1-5.4-.8l1.3,1.3c-2.2-.6-1.3,0-2,.4-1.4,1-2.7,1.8-3.9,3-.7-.8,2.4-2.6,2.7-2.9s.4-.3.3-.9h-1.3c1.1-1.4-1.9-2.9-3.2-3.4s.3,1.6-.8.8-.5-1.8-.7-2.1-1.3.3-1.2-.5c1.8-.2,3.2.9,4.6,1.7l.3-1.3c1.4.4,3.2-.6,4.2-.7s4.6,1.1,4.7-.8-1.4-1.2.3-2.7c5.2-4.6,11.4-10.5,19.3-9.7s1,.7,1.3.7c1.6,0,3.8-.3,5.6,0l-2.9.8.4.8-8.8,2.5c3.4-.9,7.5,3,10.4,1.8s.5-.9.7-.9c2.8.2,5.6.7,8.5.7s1.2.4,1-.8c-1.1.3-1,.8-1.5-.4l-1,.3-.2-.7-1.1.4c.3-.6,0-1.3.4-1.9s1.6-.7,1.7-1.5c-1.2-.3-2.8-.3-3.4-1.7l.8-.2c-1-1.4-2.5-2-4.2-1.9l1.7-2.1c-1.5-.6-1.9,1.6-2.4,1.7-1.1.3-3.9,0-5.4,0s-4,.5-6.3,0c-.3-3-3.7-.5-5.3.6s-2.1,2.1-3.1,3-3.5,1.2-1.1,2c-1.2,1.2-1.9,2.6-3.8,1.5v1.3l-1.3-.4.4,1.1c-.3.7-1.1.2-1.2.3-.3.5,0,1.4-1.5,2s0-1.1-.8-1.2l-3.1,2.2.4.8-2.9-.4c-.2-.7.7-.2.9-.7s0-1.6,0-2.4c.7-3.1,1.5-6.1,3.6-8.6l-1.1-2.1,1.3-.2-2.1-1.1-1.1,5-2.7,5.9c-.5-9.4-.9-19,0-28.4l-1.7-2.1v-7.3c1.1,0,2.1-.5,3.1-.9,2.2-1,4.1-2.6,6-3.7s3-1,3.4-1.3-.2-.5,0-.7c.9-1.5,1.3-2.7,3-3.2-1-1.2.2-2,1.3-2.5,2.3-1.1,5.2-.5,6.7-2.4l-9.2,1.3.8-.6c-.4-.6-.3-.8-1-1.1-1.5-.7-15.7-3-16.2-2.4,0,2.8,2,1.4,3,1.5s1.7.7,2.2.7,0-.8.8-.9c1.6-.2,7.4.9,8.7,2s0,1,0,1c.4.2,1.4-.4,1.2.4-8.6,1.7-17.3,2.4-26.1,2.1l2.7-3,1.1-3.8c-2.2.2-4.7.2-6.9.5-5,.6-7.6,2.3-12.3-1l-.4-.8v.2h0ZM90.2,85.1c-1.4-.7-8.1,3.1-7.1,4.2l3.2-2.4s3.9-1.8,3.9-1.8ZM50.2,89.3c0-.2-3.6-2.3-3.7-2.2l1.3,1.7-1.3-.4c0,1-.2,1.7-1.3,1.7l5,1.7-.8,1.9c-3.1-.3-1.5-.2-2.2.9s-1.3.6-1.6,1.2l1.3,1.5h-2.1l.4-.8-3.8.4,1.3-1.3-2.7,1.3c-1.4-.9,0-1.2,0-2.1-.7.8-2.1.4-2.2.5-.2,0-.2,1-.7,1.1s-3.4,0-4.7.3-2.3-.7-2.7.6c3.2.3,5.6,1.1,8.8,0-.8,1.3-3.5.3-4.2,2.1,4.8-1.8,8.7-.5,13.4-.4l-.8.8,1.7.4-.2-.8h.6l1.5,2.1c2.2-1.2,4.1-1.6,6.5-.7s-.9.7-.4,1.1l3.8.8-.4-1.3c2.4,1.2,3.7-1.8,5.8-2.8-1.3-4.5-4.4-6.6-8.8-7.7l1.3-.8h-2.1l.4,1-.8.2c0-1.5-1.8-1.4-2.9-1.7l.4,1.1-.8.4,1.3,1.3c-.5.6-3.4-2-3.7-2.4s.3-.6.2-.7h0ZM33.8,91.8c-1.6,0-4,.5-4.2,2.5.3.3,4.1-1.6,4.2-2.5ZM13.7,97.7c-1.8,0-4.9-1.3-5.5,1.3h4.8l.7-1.3ZM18.2,98.3c-.6-.2-4-.7-4.1-.6v1.3c2-.8,3.5.4,5.5.4.3-1.6-.8-.3-1.2-.5s0-.6-.1-.6h0ZM88.5,115.3c-1.2,0-1,1.9-2.9.8v1.3l4.2.8v-1.7h-1.2v-1.2h0ZM97.3,123.3c4.2.7,5.1-4.9,5-8l-1.7,5-2.8.2-.5,2.9h0Z"/>
  </g>
  <g>
    <path class="st0" d="M234.9,101.2c0,45.6-36.9,82.5-82.5,82.5s-82.5-36.9-82.5-82.5S106.8,18.7,152.4,18.7s82.5,36.9,82.5,82.5"/>
    <path class="st2" d="M82.7,155.7s5.4-13.1,8.3-16.4c2.8-3.2,21.3-19.1,21.3-19.1l12.7-6.8,7.7-6.6-.3-2.7-.9.5-1.8-3.1-1.8-7.9-3.5,2.5-1.6-.4-2.2-1.9-3.6-7.2-2.4-3.5-1.3-2.9-.6-1.8v-.2c-.2-.6-1.1-4-.9-6.2s2.7-4.2,2.7-4.2l3.7.8,1.7-1.1-.3-2.9s0,.6-.4-4-.2-9-.2-9c0,0,1.2-7,3.2-9.7s5.6-7.8,15.7-10.9c10.1-3.2,14.2-2,20.1-.7,5.7,1.3,12.4,6.1,15.5,11s3.6,12.2,3.6,12.2l.6,13.4.6,8.6,1.1-6,2.6-2.1h2.6l1.3,2.2,1,7.3-1,6.2-2.1,8.3-3.4,3.5h-4.2l1.7,5.5,5.4,5.5,2.7,4.9,4.3.5h2.5c0,0,9.2-2.7,15.7,2,7.6,5.3,33.1,27.2,27.6,39.2-5.4,12-30.2,23.6-73.8,30-47.6,7-79.4-26.9-79.4-26.9h-.2Z"/>
    <g>
      <g>
        <path class="st6" d="M130.8,125.6c7.6,16.4,29.8,12.2,44.6,8.7.4-.1.7.5.3.7-12.1,7-29.2,4.2-41.5-.4s0,0,0,0c12.1,11.3,32.6,12,47.6,9.1,2.9-.5,5-1.3,6.4-1.7s1.1.6.6,1c-13.6,11.5-41.5,4.3-55.8-4.9-4.7-2.9-11-8.5-12.9-14.1-1.6-4.8,3-3.3,4.2-8.3s0,0,0,0c-9.2,2-16.4,8.7-23.9,15.4-3.6,3.3-7,6.2-9.7,10.7-2,3.3-4.6,11.8-8,13.4s0,0,0,0c2.2-14.6,18.8-32.1,32.9-39.6,1.9-1,3.9-1.7,5.9-2.3,3.8-1.1,4.7-3.6,8.1-6.4,2.4-2.2,1.8,1,2-1.7h0c-1.7-2.7-3.6-6.7-4.2-9.9h0c-6.1,8-19.9-22.5-15.2-26.7,4-5.3,7.9,4.8,6.4-10.7-4.9-33,48.5-40.6,59.6-12.7,2.6,7.8,1.6,21.5,1.5,22.2s-.8.7-.8.7c14-12.5,9.4,29.5-1.4,27.4h0c1.3,3.3,2.2,5.1,4.4,6.8,1.7,1.2,3.1,2.9,3.9,4.9,2,4.8,2.6,1.9,9.3,1.7h0c5.4,2.5-21.2,11.9-29.2,12.8-8.1.9-1.2-1-.5-1.4,5.9-3.7,18.7-2.1,22-9h0c-2.3.4-4.3,2.8-6.7,3.1s-.9-.6-.5-1c1.8-2.2,3.6-3,1.9-6.8-2.2-4.8-3.8-.5-7.3,2-6.8,5-12.9,9.9-21.2,12-6.9,1.7-15.4,1.6-20.3-4.5-1.1-1.4-3.2-6.7.1-7.5.3,0,.5,0,.7,0h0c3,1.3,5.2,11,9.7,10.3h0c3-2.8-2-5.6-3.7-6.9h0c-5.6-6.9-13-5.6-12,3.8h0c8.6,15.6,22.9,15.9,38.1,14,.8,0,1.1.9.5,1.3-10.5,6.5-27.6,2.4-35.8-6.1h0v.4h0ZM133.6,134.3h.2c-1.2-.9-1.7-1.2-.2,0ZM132,133.2h.1c-3-3.6-4.1-6.7-6-10.8s.8-1.9-1.9-2.2h0c-10.3.8,5.7,10.8,7.9,13h-.1ZM161.1,115.3c5.6,1.2,17.7-9.9,16.4-15h0c-1.4-1-4.4,5.7-5.6,7.1-3,3.3-7.2,5.5-10.8,8h0ZM117.5,86.8h0c1.6,5.7,7.7,14.2,7.7,3.2h0c-5.2-.8-2.1,0-3.7,3.3h0c-1.5-2.2-1.8-5.3.4-6.8h0c-9.9-5.6-2.7-6.8-3.7-11.7h0c-2.6-2.3-2.2,4.3-2,5.6,0,2.1,5.7,9,1.5,6.4h-.1ZM144.2,74.8c-5.3-.8-10.8.4-15.8-.3h0c3.9-2.9-.6-1.2.8-3.9.3-.5,2.3,0,2.9-.2h0c-3.6-4.4,3.3-8.6,7.4-8.2,3.7.4,12.6,5.7,12.7,0h0c2.5,1.6,1.9,6.5.8,8.8-1.3,2.6-5.5,4.3-6.2,6.9h0c3.4-.6,2.8,2.9,1.5,4.1s-3.6.6-1.5,2.4h0c.3.2.7,0,.7,0,.9,0,7.4.7,7.5.7h.2c1.6-.6,1-6.1.8-8h0c3.2,1,.6,5.6,2.4,7,3.1,2.1.8-3.7.7-4.3h0c6.5-.3,11.6,15.6,16.4,7.1h0c3.2-8.4,2-16.3-9.1-12.1h0c-16.7-3.5-12.3-12.9,2.5-14.8h0c2.1-.2,2.5-.4,3-1.8h0c10.9-37.7-58.9-39.1-53.1,1.2h0c.6,4.1.9,6.7,2.7,9.7s1,2.1,1,3c0,5.1-2.3,7.4-1.1,9.4h0c3.5-11.1,7.1,20.8,9.7,22.5-.3-2-1.9-4-1.3-6h0c2.3,1.7,3.9,6.8,5.6,9.2h0c-1.2-6.7-10.5-16.5-3.2-20.6.9-.5,1.7-.8,2.7-.8,2.5-.2.8,3.2,4.2-1.6,1.3-1.9,3.8-2.8,5.2-4.4s0-.5-.2-.5c-3.2,0-7.8,1.3-10.4-.9h0c1.6-.3,3.2.2,4.8-.3-1.8,0-5,0-6.1-1.5h0c4-1.4,7.6,2.1,11.6-1.4h.1v-.4ZM168.9,100.9c-.2-1.1-.2-3.3-.8-4.4h0c-1.3,2.7.6,6.2-1.3,8.7-.3.4-1.1.2-1-.4,1-12.2-5.7,1.8-11-1.6h0c.8-.6,2-.5,2.7-1.2h0c-1.8-.4-4.9,0-6.8.6h0c1.9,2.1,4.2,1.2,6.7,1.8h0c0,5.1-17.1,3.7-15.1-.7.6-1.3,6.2-2.2,1.2-4.2-4.3-2.1,0,7.6-4,4.5h0c-.8,1.9.9,8.5,3.2,9.3.6.2,1.8-.5,2.9-1.1s2.3-.7,3.5-.3c10.6,3.4,17.5,2.6,19.8-10.9h0ZM177.5,86.5c0,2.4-.7,8.9,3.5,6.5,2-1.3,5-11.6.2-6.2s0,0,0,0c.5-3.1,4-4.8,4.6-9.3s-1.1-7.4-2-8.7-.1-1.1.4-1.3,0,0,0,0h0c-3-1.3-7.2,3.4-5,6.4h0c.4-1,1.9-3.8,2.8-4.3s0,0,0,0c-.3,2.2-1.1,3.9-1.3,6.2h0c.3,2.3.2,6.4-1.8,3h0c-1.8,6.1-1,5.7,3.2,1.7h0c1,1.8-2.5,8.3-4.4,5h0c-.1.4-.2.8-.2,1.2,0,0,0-.2,0-.2ZM167.7,92.1h0c-2.2-4.8-4.1-6.8-8.8-4.5-2.9,1.4-7.6,1.7-10.1,3.2h0c5,4,12,.6,17.2,5.3h0c.4-1.4,1-2.6,1.5-3.9h.2ZM147,98.7c.3.3,1.7,1,2.8,1.3,4.2,1.1,7.6-.4,9.1-1.1,0,0,2.5-1.2,2.6-2.5v-.4c-.5-.3-.5-.6-1.6-.8-2-.4-3.8.5-7.2.6h-3.6c-1.7,0-3.2.2-4.1.2s0,0,0,0l-.7,1M114,68.8c-3.5,1.8-2.5,9.5,0,12.5s0,0,0,0c0-3.2-3.5-11.5,1.7-12.4h-.4c0,0-1.5,0-1.5,0h.1ZM165.1,72.8c4.5.9,0-3.7-2.5-1.6h0c.7.7,1.2,1.2,2.5,1.6s0,0,0,0ZM139,72.7c2.5.5,2.9-.8.6-2.6h0c-2.2.3-1.9,2.4-.6,2.6ZM130.7,125.3h0Z"/>
        <path class="st6" d="M189,114.8s7.4-6,16.8-1.1,13.1,8.7,13.1,8.7c0,0-8.6-9.8-14.4-11.2s-8.1-2.1-10.4-1.8"/>
      </g>
      <path class="st0" d="M154,49.8c4.4.4,3.5,7.8-.8,7.3s-3.6-7.7.8-7.3Z"/>
      <path class="st4" d="M157,98.8c-.4.4-.8.4-1.2,0,.4-.4.8-.4,1.2,0Z"/>
      <path class="st4" d="M159.2,97.3c.4.3.4.6,0,.7-.3-.3-.3-.5,0-.7Z"/>
    </g>
    <g>
      <path class="st0" d="M131.9,71.7c-1.2-.6.5-1,1.1-1.2,1.2-.4,3.1-2.4.5-1.7-2.9.7-1.3-1.1-.4-2.6s1.8-2,3-2.2c4.8-1,9.6,1.8,14.6,2.3.6,0,.8.6.6,1.2-.4,1.1-.5,2.3-.7,3.4-.5,2.7-5.4,4.2-6.2,1.1-.7-1.5-2.2,2.5-4.6-1.2-1.2-.7-2.4.4-3,1.6s-1.3,1.4-2.2,1.5-2.2-.3-2.7-.8c-.9-1,.2-.7,0-1.2v-.2h0ZM143.3,68.8c-.8,0,1.1,1,1.2,1.1.5.3,2.5,2.2,2.6,1.2-.7-1.2-2.6-2-3.9-2.2h.1,0Z"/>
      <path class="st0" d="M160.4,64.6c2.9-1.3,5.4-1.8,6.1-2,1.5-.3,3.4-.6,5.7-.8s1.1,0,1.7.3.7.5.7.8c0,.6-1.1.6-3.7,1.1-3.1.6-3.2,2.5-3.3,2.5,1.1.8,8.5,4.8,4.4,4.4-.7-.2-1,0-.6.6-.5.8-1.6.5-2.3.3-1.1.5-2.7,1.8-3.5-.2-.7-2-3.2.8-4.8,0s1.3-1.2,1.9-1.2c2.4-.8,5.3-2.8,7.4-.2,0-.8-.4-1.3-.7-1.7-2.4-2.3-9.4,2.2-11,0-.6-.7-.2-1.9-.2-2,.3-1,1.3-1.6,2.3-2.1h-.1,0Z"/>
      <path class="st0" d="M144.4,85.9v1c0,.2-.1.5-.3.7-.3.3-.8,0-1-.4,0,0-.1-.3-.3-.3s-.2,0-.3.2c-.5.7-.9,1.3-1.3,2-.4.7-.7,1.4-1.2,2.1-.2.3-.6.5-.9.7-.8.5-1.8.9-2.8,1.1-1.4.3-3,.3-4.3-.2-.4,0-.7-.4-.8-.8v-.7s0-.2.2-.3c.2-.3.7-.7,1.2-.6.3,0,.5.2.8.4.6.4,1.3.6,2,.6,1.9,0,3-2,3.8-3.4s1.5-2.8,2.3-4.2c1.3-2.1,2.8-3.9,5.2-4.7.3,0,1.1-.4,1.4,0,.3.3-.3.6-.5.8-.8.7-1.5,1.6-1.8,2.7s-.3,3,1.3,2.9c.3,0,.6,0,.9,0,1.1,0,2.1.5,3,1,.8.5,1.7.7,2.6.5.4,0,.9-.2,1.3-.4-1,4-8.3,1.6-10.4-.5h-.2.1ZM142.6,86.6h0Z"/>
      <path class="st0" d="M148.8,120.8c-1.9.3-4.9,1.4-6.6.2.6-1.6,4.4-1.3,4.4-3.4-.2-1.4-2.4-1.1-2.6-2.2,5.2,1.2,10.9,2.1,16.1.3,3.5.2-14.9,8.7-11.2,5h-.3.2Z"/>
      <path class="st0" d="M126.9,117.7c.2,0,.3,0,.5.2,1,.7,2,1.6,2.8,2.5s1.6,2,2.3,3c1.7,2.2,3.5,4.2,5.8,5.8.3.2,1.1.6,1.3.9.2.5,0,.5-.5.4-.7-.2-1.4-.9-2-1.3-.6-.4-1.2-.8-1.8-1.2-1.1-.7-2.1-1.5-3-2.3s-1.5-1.6-2.2-2.3-.4,0-.4.2c.1.8.3,1.5.5,2.3s.6,1.8,1.1,2.6c.4.8.9,1.7,1.4,2.5s.6.8.8,1.2.4.8,0,.9c-.5.2-2.1-1.8-2.3-2.2-1.5-1.8-2.3-3.9-3-6.2-.6-1.9-1.1-3.9-1.7-5.8,0-.2,0-.4,0-.7s0-.5.4-.5h.3-.2Z"/>
      <path class="st0" d="M151.6,94c2.9.6,12.5.9,6.4,1.5-2.1.2-3.9.3-5,.3-1.6,0-3.3.3-4.9.4-1.8,0-2.8.2-2.9.5,0,.3.6.7,1.3,1.1-.6.6-1.5.4-2.2,0-.7-.3-1.6-1.1-2.4-.9-.3,0-.6.4-.8.7-.5.7-.8,1.5-1.1,2.3,0,.3,0,.7-.3.9-.2-.3-.2-.7-.2-1,0-.6-.1-1.2-.2-1.8-.1-.6-.2-1.3.2-1.9.3-.5.9-.9,1.5-1.1,2.3-1,4.8-1.5,7.5-1.4.7,0,2.4.2,3.5.4h-.4Z"/>
      <path class="st0" d="M175,102.4c-.4,2.5-1.8,5-3.5,7-.8.9-1.6,1.8-2.6,2.4-.4.2-2.9,1.1-2.8,0,.1-.7,2.3-.8,2-1.6-.2-.5-1-.3-.3-1,.4-.4.9-.6,1.4-1,.9-.9,1.6-2,2.1-3.1.2-.4.4-1.5.9-1.5s.4.8.5,1.1v.3s.1,0,.2-.2c.5-.5.9-1.1,1.2-1.8.1-.2.6-1.7,1-1.2v.6h-.1,0ZM168.5,110c-.1,0-.2.2-.3.3.2.2.3,0,.5-.2h-.1c0,0-.1,0-.1,0h0Z"/>
      <path class="st0" d="M168.7,96.1c-.5-1.3-.7-3-1.3-4.4-1.3-3.1-3.3-5.8-5-8.8-.6-1.1-.5-2.1,1-1.3.9.5,1.8,1.6,2.3,2.5s.9,1.8,1.3,2.6c1.3,2.8,3.3,6.2,2.1,9.4-.1.3-.3.2-.5,0h.1,0Z"/>
      <path class="st0" d="M142.1,119.9c0,.3-.3.6-.5.7-1.2.8-2.3-.4-3-1.2-.9-1.1-1.6-2.5-2.2-3.8-.6-1.2-1.1-2.5-1.4-3.8s-.2-.8-.2-1.2h.6c.5.2.7.5,1,.9s.6.9.8,1.3c.5.9,1,1.8,1.7,2.6.5.7,1.1,1.3,1.7,1.9.3.2.5.4.8.7s.4.6.6.9c0,.2.2.4.2.6h0c0,0-.1.4-.1.4h0Z"/>
      <path class="st0" d="M179.4,104.1c-2.1,3.8-6.9,7.5-10.5,9,2.4-3.6,9-5.6,9.3-10.7.4-1.1,1.3,1.1,1.2,1.6h0Z"/>
      <path class="st0" d="M115.3,69.2c1.1,0,2.2.6,3,1.3.3.3,1.9,2.2,1.2,2.6-.4.2-.9-.6-1.2-.8-.4-.3-1.1-.8-1.7-.8-1,0-.9,1.1-1.6,1.5-.3-.5,0-1.4-.5-1.7-.5-.3-1,.3-1.5,0-.5-.4.2-1.2.5-1.5.5-.4,1-.6,1.7-.5h0Z"/>
      <path class="st0" d="M186.5,72.5c0,.3,0,2-.7,1.2-.4-.5-.1-1.9-.3-2.4-.1-.7-.4-1.6-.9-2.1s-1.1-.3-1.7-.4c.5-1.3,2-.9,2.8,0,.9.9.9,2.6.8,3.8h0Z"/>
      <path class="st0" d="M159.5,94.9s3.5,0,4.2,1.2c.4.7,0,.4-.4.5-1.1.4-1.8,2.4-2.5,1.6-1-1.3,1-1.5.7-2.4-.3-.5-11.5-.2-2-1h0Z"/>
      <path class="st0" d="M122.9,75.9h0c0,.6-.4,1.2-.9,1.5-.3-1.1.3-2.2-.5-3.3-.2-.3-.9-.7-1-1,0-.6.6-.2.9-.3.5-.2.2-1.3.7-1.5.8-.3.7,2.6.8,3v1.5h0Z"/>
      <path class="st0" d="M121.5,76.1c-.3,1.4-1.6,4.3-3.5,3.3.4-.6,1.2-.9,1.6-1.7.4-.7,0-.4-.3-1.1-.3-1.1,2.2-2.7,2.1-.6h.1Z"/>
      <path class="st0" d="M178.7,75.4c.2-.6.3-1.2.9-1.5.4.8.3,1.8.7,2.6.4.9.8,1.9.4,2.9-.6,1.3-.8-.3-1.1-.9-.5-1-.9-1.9-.8-3h-.1,0Z"/>
      <path class="st0" d="M127.2,93.4c0,1.1-.5,2.4-1.6,2.9-.4.2-1,.2-.8-.4,0-.4.9-.8,1.1-1.3s.3-1,.4-1.5c0-.4,0-1.2,0-1.5.7-1.1.8,1.6.8,1.9h0Z"/>
      <path class="st0" d="M178.2,85.1c.2-1.2,1-1.7,1.8-2.3.2-.2.8-.8,1.1-.5s0,.9-.2,1.1c-.4.8-1.2,1-1.7,1.7-.1.2-.2.9-.6.9s-.5-.6-.5-.9h.1,0Z"/>
      <path class="st0" d="M157.1,86.9c-.4,0-.7,0-1-.2s-.5-.4,0-.9c.6-.5,1.6-.7,2.4-.6.6,0,1.5.4,1,1.1-.3.4-1.1.5-1.5.5h-.9Z"/>
      <path class="st0" d="M124.5,86.3c-.8-.4-1.4-.9-2-1.6-.2-.3-1.3-1.7-.5-1.8.4,0,1.4,1.5,1.7,1.8.4.4,1.6,1,.8,1.5h0Z"/>
      <path class="st0" d="M150.6,99.3c-.6,0-1.4,0-2.3-.4-.6-.2-1-.4-1.4-.7,0-.3,3.5.6,7.6,1.1,0,0-.5.2-3.7,0h-.2Z"/>
      <path class="st0" d="M148.7,93.6c-.2,0-.4,0-.5,0h.5Z"/>
      <path class="st0" d="M175,102.4v-.6c.2.2.2.4,0,.6Z"/>
      <path class="st0" d="M158.9,69.2h.4-.4Z"/>
      <path class="st0" d="M145.1,73c.1,0,.2,0,.3,0v.3s-.2,0-.3,0h0Z"/>
      <path class="st0" d="M143.4,97.6h.3-.3Z"/>
      <path class="st0" d="M172.8,104.8s-.1,0-.2.2v-.3h.2Z"/>
      <path class="st0" d="M132.2,71.7h.2s-.1,0-.2.2v-.2Z"/>
      <path class="st0" d="M144.4,85.9h0c0,0,0,0,0,0Z"/>
      <path class="st0" d="M146,72.8h-.2.2Z"/>
      <path class="st0" d="M168.5,110h.1c-.2.2-.3.4-.5.3.1,0,.2-.2.3-.3h.1,0Z"/>
    </g>
    <circle class="st5" cx="142.5" cy="70" r=".5"/>
    <circle class="st5" cx="167.4" cy="70.7" r=".4"/>
  </g>
  <g>
    <path class="st2" d="M151.1,198.1s-.6-13.1-6.2-21.1c-3.8-5.4-22.8-31.2-69.4-33.6-16.2.3-29.8,5.4-29.8,5.4l-35.9,31.2s19.4-11.4,60.3-10.8c25,0,48.9,9.7,56.9,13.6,8,4,24.2,15.1,24.2,15.1v.2Z"/>
    <path class="st0" d="M151.1,198.1c-.6-6.8-2.1-13.7-5.6-19.7-15-21.8-41.7-32.5-67.4-34-5.4-.4-10.9.3-16.3,1.2-5.3.9-10.8,2.2-15.8,4-4.2,4-21.4,18.7-26.5,23.4l-9,7.8-1.1-1.6c5.6-2.9,11.7-4.8,17.7-6.4,12.1-3,24.7-4.2,37.2-4.4,18.7-.5,37.5,3.4,54.8,10.5,11.6,4.5,21.9,12,32.1,19.1h-.1ZM151.1,198.1c-7.9-5-15.6-10.2-23.9-14.5-14-6.6-29.1-10.9-44.5-12.7-7.7-.9-15.4-.8-23.2-.5-12.3.5-24.7,2.1-36.6,5.6-4.3,1.3-8.8,2.9-12.8,5l-8.2,4.5,7-6.1c10.1-8.8,25.8-22.7,36.2-31.4,9.3-3.1,18.9-4.9,28.7-5.3,7,0,13.9,1.1,20.7,2.5,18.9,4.1,37.1,13.9,48.9,29.5,5.2,6.6,7.1,15.1,7.6,23.4h.1Z"/>
  </g>
  <g>
    <path class="st2" d="M153.6,198.1s.6-13.1,6.2-21.1c3.8-5.4,22.8-31.2,69.4-33.6,16.2.3,29.8,5.4,29.8,5.4l35.9,31.2s-19.4-11.4-60.3-10.8c-25,0-48.9,9.7-56.9,13.6-8,4-24.2,15.1-24.2,15.1h0v.2Z"/>
    <path class="st0" d="M153.6,198.1c.5-8.3,2.3-16.8,7.6-23.4,11.8-15.6,30-25.4,48.9-29.5,6.8-1.4,13.7-2.5,20.7-2.5,9.8.4,19.5,2.2,28.7,5.3,10.3,8.8,26.1,22.6,36.2,31.4l7,6.1-8.2-4.5c-4-2.1-8.5-3.7-12.8-5-11.8-3.5-24.3-5.1-36.6-5.6-7.8-.3-15.5-.4-23.2.5-15.3,1.8-30.5,6.1-44.5,12.7-8.3,4.3-16,9.5-23.9,14.5h.1,0ZM153.6,198.1c10.3-7.1,20.5-14.5,32.1-19.1,17.3-7.1,36.1-11,54.8-10.5,12.5.1,25.1,1.4,37.2,4.4,6.1,1.6,12.2,3.4,17.7,6.4l-1.1,1.6-9-7.8c-5-4.5-22.4-19.5-26.5-23.4-5.1-1.8-10.5-3.1-15.8-4-5.3-.8-10.9-1.6-16.3-1.2-25.7,1.5-52.4,12.1-67.4,34-3.5,5.8-5,12.8-5.6,19.7h-.1Z"/>
  </g>
  <g>
    <path class="st0" d="M145.4,198.1c-4.6-4.3-10.2-7.7-15.8-10.4-11.3-5.5-23.7-9-36.1-10.9-7.8-1.3-15.7-1.8-23.6-2.1h-9.5c-11,0-22.1,1.1-32.7,4.2-9.2,2.6-17.7,6.8-25.8,11.7,1.3-.9,2.6-1.8,3.9-2.7,13.3-9,29-13.9,45-15,6.1-.5,13-.4,19.2-.4,4.7.2,9.6.4,14.3.9,3.1.4,6.4.6,9.5,1.3,1.6.3,5.5.9,7.1,1.3,2.1.5,4.8,1.1,7,1.7,2.6.8,6.7,2,9.1,3,10.4,3.9,20.7,9.3,28.3,17.3h.2-.1Z"/>
    <path class="st0" d="M127.5,188.1c-18.6-5.7-38.4-8.5-57.9-8.7-7,0-14,.4-20.9,1.3-.6,0-2.5.3-3.1.4-5.7,1.1-11.6,2.5-17.3,4-11.5,3.3-20.4,7.5-28.3,16.6,7.1-9.9,16.5-14.7,27.8-18.2,5.2-1.6,11.5-3.2,16.9-4.4,2.1-.3,5.7-.7,8-1,14.7-1.5,29.7-.8,44.3,1.6,10.4,1.9,20.7,4.4,30.4,8.4h0Z"/>
    <path class="st0" d="M137.1,194.4c-27.1-6.6-55.2-12.1-83.2-8.4-13.8,1.8-27.7,4.9-40.1,11.4-2.5,1.3-4.9,2.7-7.3,4.3l1.6-1.3c3.9-3,8.3-5.4,12.8-7.6,17.6-7.9,38.8-11.2,58.2-10.3,19.8,1.1,39.3,5.4,58,11.7h0v.2Z"/>
    <path class="st0" d="M137.1,196.4c-18.5-2.7-37.2-5.1-55.9-5.9-6.6-.2-13.4-.3-20,.2-11.9,1-23.8,3.8-34.3,9.6-3.5,1.9-6.9,4.1-9.9,6.8-1,.9-2,1.8-2.8,2.8,1.6-2.2,3.5-4,5.6-5.8,11.5-9.7,26.5-14.2,41.2-15.6,1.3,0,4.8-.3,6-.3h6c21.6.3,42.9,3.5,63.9,8.4h0l.2-.2Z"/>
    <path class="st0" d="M158.8,198.7c7.7-8.1,18-13.4,28.3-17.3,2.5-1,6.5-2.2,9.1-3,2.1-.6,4.8-1.2,7-1.7,1.5-.4,5.4-1,7.1-1.3,3.1-.6,6.4-.9,9.5-1.3,4.7-.6,9.6-.7,14.3-.9,6.1,0,13-.1,19.2.4,15.9,1.2,31.8,6.1,45,15,1.3.9,2.6,1.8,3.9,2.7-8.1-4.9-16.7-9.1-25.8-11.7-10.6-3.1-21.7-4.3-32.7-4.2h-9.5c-7.9.3-15.8.8-23.6,2.1-12.4,1.9-24.8,5.3-36.1,10.9-5.6,2.8-11.2,6.1-15.8,10.4h.2-.1Z"/>
    <path class="st0" d="M176.7,188.7c9.8-4,20.1-6.6,30.4-8.4,14.6-2.5,29.6-3.1,44.3-1.6,2.2.3,5.7.7,8,1,5.3,1.2,11.7,2.7,16.9,4.4,11.4,3.5,20.8,8.4,27.8,18.2-7.9-9.3-16.9-13.4-28.3-16.5-5.7-1.5-11.5-3-17.3-4-.6,0-2.4-.3-3.1-.4-6.9-.9-13.9-1.2-20.9-1.3-19.5.1-39.2,2.9-57.9,8.7h0Z"/>
    <path class="st0" d="M167,195c18.7-6.2,38.2-10.6,58-11.7,19.3-.9,40.5,2.3,58.2,10.3,4.5,2,8.9,4.5,12.8,7.6l1.6,1.3c-2.3-1.6-4.7-3-7.3-4.3-12.5-6.5-26.3-9.7-40.1-11.4-27.9-3.8-56,1.8-83.2,8.4h0v-.2Z"/>
    <path class="st0" d="M167,196.9c21-4.8,42.3-8.1,63.9-8.4h6c1.3,0,4.7.3,6,.3,14.7,1.4,29.7,5.9,41.2,15.6,2,1.7,4,3.6,5.6,5.8-.9-1-1.8-1.9-2.8-2.8-3-2.6-6.4-4.8-9.9-6.8-10.5-5.7-22.4-8.6-34.3-9.6-6.6-.4-13.4-.4-20-.2-18.7.8-37.4,3.2-55.9,5.9h0l.2.2Z"/>
  </g>
  <polygon class="st2" points="126.6 171.8 146.6 168.7 159.3 173.9 152.7 187.9 126.6 171.8"/>
  <path class="st0" d="M71.5,208.6c-1.9,0-.3-.3.4-.5,13.1-2.3,28-4.9,40.6-9.9,10.3-4.2,26.3-6.7,33-18.9,3.3-6.1-8.3-7.7-12.5-9.1-2.8-.7-10.1-3.1-6.7-6.1,1.3-1.1,4-1.9,7-2.6,3.2-.7,6.6-1.2,9.8-1.6,1.1-.1,2.4-.2,3.3-.3,2-.2.6,0-.4.4-2.3.7-5.8,1.6-8,2.8-4.2,2.4.7,3.5,2.9,3.8,19.2,2.1,57.1,5.6,22,26.8-27.1,16.3-55.7,15.5-91.3,15.1h-.1Z"/>
  <path class="st0" d="M148.4,38.8c.6,5,1.1,10,1.3,15,.2,3.1.2,6.2.8,9.4.8,3.3,4.7,4.3,6.5,1.2.6-1,.8-2.3.8-3.5,0-7.3-.9-15.3-.9-22.6.8,7.3,1.4,15.3,1.5,22.6,0,1.3-.2,2.6-.8,3.8-1.3,2.6-5,3-6.7.5-.8-1-1-2.4-1.1-3.7-.3-2.5-.4-5-.5-7.6-.3-5-.7-10.1-.8-15.1,0,0-.1,0-.1,0Z"/>
</svg>